# xmcd CD database file
#
# Track frame offsets:
#	150
#	17320
#	40114
#	57344
#
# Disc length: 1064 seconds
#
# Revision: 0
# Processed by: cddbd v1.5.1PL2 Copyright (c) Steve Scherf et al.
# Submitted via: CDex 1.60beta1
#
DISCID=24042604
DTITLE=ぬとぬとパラダイス - Twelve Tiny Tals -Preview-
DYEAR=1900
DGENRE=未分類 (日本)
TTITLE0=SAKURA REVOLUTION
TTITLE1=LoveDestiny
TTITLE2=SAKURA REVOLUTION (off vocal)
TTITLE3=LoveDestiny (off vocal)
EXTD=
EXTT0=
EXTT1=
EXTT2=
EXTT3=
PLAYORDER=
